<svg id="Layer_1" data-name="Layer 1" xmlns="http://www.w3.org/2000/svg" viewBox="0 0 200 200">
  <path d="M49,146.58c2.33,15.16,4.25,29.2,6.92,43.09.35,1.82,4.54,2.91,8,4.94-12,.81-23.37,1.76-34.79,2.13-1.6,0-4.5-2.56-4.75-4.25-2.46-16.37-5.23-32.76-6.4-49.25-1-14.51,4.81-25.65,19.82-30.85,3.08-1.06,6.66-5.44,7.06-8.66,2.23-17.91,3.6-35.92,5.1-53.91A23.38,23.38,0,0,0,49,43C44.81,24.08,36,18,16.84,19.66A19.91,19.91,0,0,1,5.1,16.83C.18,13.65,1.34,7.34,7.1,6.17,15.27,4.5,23.92,2.49,32,3.56,66.9,8.16,101.83,5.3,136.76,5.3a192.17,192.17,0,0,1,34,3.55c10.67,1.93,15.58,10.93,19.63,19.89,9.21,20.39,8.89,41.81,5,63.14-2.18,12-6.17,23.64-9.76,35.33-2.6,8.49-8.76,12.71-17.7,13.23-34.37,2-68.73,4.12-103.09,6.11C60.1,146.82,55.3,146.58,49,146.58Z" fill="#707070" stroke="#707070" stroke-miterlimit="10"/>
</svg>
