<svg id="Layer_1" data-name="Layer 1" xmlns="http://www.w3.org/2000/svg" viewBox="0 0 250 220">
  <path d="M244.49,30.69v20a4.42,4.42,0,0,1-4.42,4.42H173a27.59,27.59,0,0,1-27.58,27.58h-.6c-8,51.7-1.28,103.65,1.72,122.35a6.28,6.28,0,0,1-6.22,7.27H109.64a6.28,6.28,0,0,1-6.21-7.27c3-18.7,9.71-70.65,1.72-122.35h-.6A27.57,27.57,0,0,1,77,55.13H35.17A29.66,29.66,0,0,1,5.51,25.47V17.33a9.67,9.67,0,0,1,9.66-9.66H221.48A23,23,0,0,1,244.49,30.69Z" fill="#707070" stroke="#707070" stroke-miterlimit="10"/>
</svg>
