<svg id="Layer_1" data-name="Layer 1" xmlns="http://www.w3.org/2000/svg" viewBox="0 0 165 200">
  <path d="M82.51,39.34a79.26,79.26,0,0,0-43,12.58V1.63H8.63V89.38a79.53,79.53,0,1,0,73.88-50ZM72.11,64.57l6.36,35A19.71,19.71,0,0,0,63.16,115l-23.62-4.3L28.2,108.59a55.33,55.33,0,0,1,43.91-44Zm.47,108.65A55.29,55.29,0,0,1,28.2,129.1l35-6.35a19.74,19.74,0,0,0,15.78,15.51ZM83,119.16l-.07.36-.11.66-.29,1.53-.28-1.53-.14-.81-.16,0-2.74-.5,2.71-.49v0h0l.58-.09.65-.13-.08.44,1.59.29Zm9.46,54.07-6.36-35A19.72,19.72,0,0,0,101.81,123l35,6.36A55.32,55.32,0,0,1,92.42,173.23Zm9.39-58.49A19.68,19.68,0,0,0,86.52,99.53l6.36-35a55.31,55.31,0,0,1,43.89,43.82Z" fill="#707070" stroke="#707070" stroke-miterlimit="10"/>
</svg>
