<svg id="Layer_1" data-name="Layer 1" xmlns="http://www.w3.org/2000/svg" viewBox="0 0 260 260">
  <g>
    <g>
      <path d="M126.84,3.87v75a50,50,0,0,0-49.95,48l-75,.57A125,125,0,0,1,126.84,3.87Z" fill="#41a8bf"/>
      <line x1="76.89" y1="126.85" x2="1.85" y2="127.42" fill="#41a8bf"/>
    </g>
    <g>
      <path d="M133.16,3.72v75a50,50,0,0,1,50,48l75,.57A125,125,0,0,0,133.16,3.72Z" fill="#55ccd9"/>
      <line x1="133.16" y1="3.72" x2="133.16" y2="78.72" fill="#55ccd9"/>
      <line x1="258.15" y1="127.28" x2="183.11" y2="126.7" fill="#55ccd9"/>
    </g>
    <g>
      <path d="M133.16,256.28v-75a50,50,0,0,0,50-48l75-.57A125,125,0,0,1,133.16,256.28Z" fill="#f25244"/>
      <line x1="133.16" y1="181.28" x2="133.16" y2="256.28" fill="#f25244"/>
      <line x1="183.11" y1="133.3" x2="258.15" y2="132.72" fill="#f25244"/>
    </g>
    <g>
      <path d="M127.15,256.28v-75a50,50,0,0,1-49.95-48l-75-.57A125,125,0,0,0,127.15,256.28Z" fill="#d96055"/>
      <line x1="2.16" y1="132.73" x2="77.2" y2="133.3" fill="#d96055"/>
    </g>
  </g>
</svg>
