<svg xmlns="http://www.w3.org/2000/svg" xmlns:xlink="http://www.w3.org/1999/xlink" viewBox="0 0 800 865">
  
  <g id="seat_bottom" style="isolation: isolate">
    <path d="M591,484c1,.67-2,6.33-1,7-.83,16.57-32.51,26.57-59,34-21.62,6.06-75,18.9-106,14-37.88-6-62.32-12.5-79-15-28.21-4.23-104-3.48-117-13-2.09-11.35,4.43-23.24,12-24,11-1.1,77.23,2.3,91,3,15.38,3.67,34.31,7.1,50,12,15.79,9.88,26.23,15.53,41,19,34.08,8,80.72-3.37,104-9C552.61,505.81,579.42,504.83,591,484Z"  fill-rule="evenodd"/>
  </g>
  <g id="seat" style="isolation: isolate">
    <!-- <path d="M515,535l7,1Z" fill="none" fill-rule="evenodd"/> -->
    <path d="M444,450c57.18-1.56,120.8-1.25,147,27,1.7,25.39-40.48,30.7-65,36-27,5.82-67.45,16.89-102,9-15.7-3.59-29.44-13.55-43-20-16.59-5.51-31.64-7.87-47-10-19.35-6.17-76.45-3.64-94-4,3.48-2.33,101.6-17.69,146-26C405.33,458,424.36,453.69,444,450Z" fill-rule="evenodd"/>
  </g>
  <g id="back" style="isolation: isolate">
    <path d="M350,152c25.8-3.54,32.25,37.4,44,73,23.26,70.45,44.23,140.84,19,231-38.59,10.17-100.48,17.7-140,27-18.56,4.37-36.48-.54-43,16-1.85,6.72,3.61,12.92,5,18-2.14,1.73-7,6.34-10,5-2.86,0-6-3.38-7-5,5.23-34,14.53-73,19-107,1.22-18.66,2.14-39,0-58-6.47-40.36-13.47-80.73-23-122-4.48-19-5.46-39.26-13-55-3.16-6.6-9.26-8.61-15-11,3.74-3.66,61.11-7.89,100-11C303,152.06,333,152.33,350,152Z" fill-rule="evenodd"/>
  </g>
  <g id="shadow_Image" data-name="shadow Image">
    <image id="shadow_Image-2" data-name="shadow Image" width="447" height="699" transform="translate(168 153)" xlink:href="images/layers/base_cut1.png"/>
  </g>
</svg>
